<?xml version="1.0" standalone="no"?><!DOCTYPE svg PUBLIC "-//W3C//DTD SVG 1.1//EN" "http://www.w3.org/Graphics/SVG/1.1/DTD/svg11.dtd"><svg class="icon" width="200px" height="200.00px" viewBox="0 0 1024 1024" version="1.1" xmlns="http://www.w3.org/2000/svg"><path fill="#ffffff" d="M891.417 428.438l-129.855-48.949-161.167-193.913c-33.604-40.432-83.725-70.853-141.122-85.654-58.391-15.058-120.944-12.831-176.13 6.275-0.323 0.113-0.643 0.229-0.957 0.357-1.225 0.494-5.754 2.325-12.272 5.187l-5.373-6.463c-29.078-34.987-81.198-39.792-116.182-10.715-34.99 29.083-39.797 81.2-10.719 116.186l4.983 5.994c-3.738 5.477-6.020 9.051-6.277 9.466-0.138 0.211-0.266 0.432-0.397 0.647-29.825 50.922-44.135 112.521-40.29 173.451 3.778 59.817 24.565 115.265 58.528 156.128l161.167 193.913 26.116 146.23c3.045 17.478 15.34 32.185 32.090 38.371 16.644 6.146 35.51 2.869 49.247-8.546l139.463-115.913c51.158 45.293 129.31 47.789 183.444 2.797 54.133-44.991 65.969-122.278 30.8-180.86l139.439-115.892c21.259-17.669 24.196-49.315 6.553-70.544-8.007-9.638-18.949-15.783-31.086-17.551v0 0zM175.887 127.679c16.206-13.469 40.103-11.727 54.213 3.613-3.932 2.185-7.865 4.454-11.703 6.803-1.642 1.005-3.119 2.218-4.406 3.571-0.662 0.403-1.334 0.812-2.023 1.228-4.765 2.877-10.161 6.137-15.51 10.582-5.341 4.439-9.534 9.149-13.236 13.302-0.449 0.509-0.894 1.011-1.343 1.503-1.65 1.031-3.168 2.294-4.515 3.773-2.754 3.034-5.457 6.142-8.077 9.261-12.222-16.657-9.507-40.249 6.598-53.635v0 0zM718.188 780.166c-35.81 29.763-86.743 29.57-122.203 2.302l146.815-122.023c20.322 39.85 11.197 89.958-24.612 119.721v0 0zM888.428 483.415l-493.14 409.866c-1.943 1.615-4.55 2.096-6.805 1.267-2.401-0.887-4.154-2.945-4.595-5.451l-27.13-151.922c-0.655-3.669-2.255-7.107-4.639-9.977l-164.807-198.291c-59.575-71.679-65.743-191.943-14.402-279.922 1.779-2.772 15.907-24.509 32.482-43.622 1.243-0.83 2.421-1.787 3.489-2.887 2.367-2.405 4.467-4.767 6.502-7.045 3.083-3.461 5.745-6.451 8.603-8.829 2.864-2.38 6.291-4.448 10.261-6.85 2.608-1.582 5.31-3.209 8.107-5.098 1.151-0.77 2.208-1.644 3.171-2.599 22.697-13.222 48.326-23.757 52.205-25.33 95.099-32.683 210.886-4.194 269.546 66.385l164.807 198.291c2.384 2.868 5.477 5.066 8.971 6.382l137.669 51.898c1.924 0.73 3.943 1.175 5.993 1.326 1.773 0.132 3.43 1.027 4.671 2.516 2.506 3.023 2.089 7.369-0.955 9.899v0 0zM888.428 483.415z" /></svg>