<?xml version="1.0" standalone="no"?><!DOCTYPE svg PUBLIC "-//W3C//DTD SVG 1.1//EN" "http://www.w3.org/Graphics/SVG/1.1/DTD/svg11.dtd"><svg class="icon" width="200px" height="200.00px" viewBox="0 0 1024 1024" version="1.1" xmlns="http://www.w3.org/2000/svg"><path fill="#ffffff" d="M780.288 710.656 243.712 710.656c-20.48 0-38.912-16.384-38.912-38.912L204.8 288.768c0-20.48 16.384-38.912 38.912-38.912l536.576 0c20.48 0 38.912 16.384 38.912 38.912l0 385.024C819.2 694.272 802.816 710.656 780.288 710.656L780.288 710.656 780.288 710.656 780.288 710.656zM737.28 331.776c-8.192-8.192-20.48-8.192-26.624 0l-65.536 65.536L550.912 491.52l0 0c-10.24 10.24-24.576 16.384-38.912 16.384-14.336 0-26.624-6.144-36.864-14.336l0 0L348.16 368.64l0 0-34.816-34.816c-8.192-8.192-20.48-8.192-26.624 0-8.192 8.192-8.192 20.48 0 26.624l120.832 122.88L286.72 602.112c-8.192 8.192-8.192 20.48 0 26.624 8.192 8.192 20.48 8.192 26.624 0l120.832-120.832 32.768 32.768c2.048 2.048 4.096 4.096 4.096 4.096l2.048 2.048 0 0c10.24 8.192 22.528 12.288 36.864 12.288 16.384 0 30.72-6.144 40.96-16.384l0 2.048 36.864-36.864 122.88 122.88c8.192 8.192 20.48 8.192 26.624 0 8.192-8.192 8.192-20.48 0-26.624l-122.88-122.88 122.88-120.832C745.472 352.256 745.472 339.968 737.28 331.776L737.28 331.776 737.28 331.776 737.28 331.776zM737.28 331.776" /></svg>