<?xml version="1.0" standalone="no"?><!DOCTYPE svg PUBLIC "-//W3C//DTD SVG 1.1//EN" "http://www.w3.org/Graphics/SVG/1.1/DTD/svg11.dtd"><svg class="icon" width="200px" height="200.00px" viewBox="0 0 1024 1024" version="1.1" xmlns="http://www.w3.org/2000/svg"><path fill="#ffffff" d="M512 0C229.216 0 0 229.216 0 512c0 282.768 229.216 512 512 512 282.752 0 512-229.232 512-512C1024 229.216 794.752 0 512 0zM512 992C246.896 992 32 777.088 32 512 32 246.896 246.896 32 512 32c265.056 0 480 214.896 480 480C992 777.088 777.056 992 512 992zM806.624 313.376C800.368 307.12 792.192 304 784 304L240 304c-8.192 0-16.384 3.12-22.624 9.376C211.12 319.616 208 327.808 208 336l0 352c0 8.192 3.12 16.368 9.376 22.624C223.616 716.88 231.808 720 240 720l544 0c8.192 0 16.368-3.12 22.624-9.376S816 696.192 816 688L816 336C816 327.808 812.88 319.616 806.624 313.376zM784 672c0 4.096-1.568 8.192-4.688 11.312S772.096 688 768 688L256 688c-4.096 0-8.192-1.568-11.312-4.688S240 676.096 240 672L240 352c0-4.096 1.568-8.192 4.688-11.312S251.904 336 256 336l512 0c4.096 0 8.192 1.568 11.312 4.688S784 347.904 784 352L784 672zM610.896 493.024l134.4-96c7.184-5.136 8.864-15.12 3.728-22.32-5.136-7.2-15.136-8.864-22.336-3.728l-205.408 146.72c-2.624 1.872-5.824 2.992-9.296 2.992s-6.672-1.12-9.296-2.992l-205.408-146.72c-7.2-5.136-17.184-3.472-22.32 3.728s-3.472 17.184 3.728 22.32l134.4 96-136.528 139.12c-6.192 6.32-6.096 16.432 0.208 22.624 6.32 6.192 16.432 6.096 22.624-0.224l140.064-142.704 53.936 38.512c5.248 3.744 11.664 5.952 18.608 5.952s13.36-2.208 18.592-5.952l53.936-38.528 140.048 142.688c6.192 6.32 16.32 6.4 22.624 0.224s6.4-16.32 0.224-22.624L610.896 493.024z" /></svg>