<?xml version="1.0" standalone="no"?><!DOCTYPE svg PUBLIC "-//W3C//DTD SVG 1.1//EN" "http://www.w3.org/Graphics/SVG/1.1/DTD/svg11.dtd"><svg t="1537237756707" class="icon" style="" viewBox="0 0 1024 1024" version="1.1" xmlns="http://www.w3.org/2000/svg" p-id="2207" id="mx_n_1537237756709" xmlns:xlink="http://www.w3.org/1999/xlink" width="200" height="200"><defs><style type="text/css"></style></defs><path d="M485.248 370.432v58.88l-168.256 92.544-168.256-92.522667v-193.493333l168.256-96.768 168.256 96.768v50.474667h42.069333V210.56l-210.346666-121.984L106.666667 210.581333v243.989334l210.325333 121.984 210.325333-121.984v-84.138667z" fill="#ffffff" p-id="2208"></path><path d="M695.573333 88.597333l-210.346666 121.984v243.989334l67.328 37.845333 21.034666-37.845333-46.293333-25.237334v-193.493333l168.277333-96.768 168.256 96.768v193.493333l-168.256 92.522667-42.069333-25.237333-25.237333 42.069333 67.306666 37.866667 210.304-121.984V210.56z" fill="#ffffff" p-id="2209"></path><path d="M506.282667 412.501333l-67.306667 42.069334 25.237333 37.845333 42.069334-25.237333 164.053333 96.746666v189.290667l-164.053333 96.746667-164.053334-96.746667v-189.290667l42.069334-25.237333-21.034667-42.069333-67.306667 37.866666V778.453333l210.325334 121.984 210.304-121.984V534.485333z" fill="#ffffff" p-id="2210"></path><path d="M363.264 547.114667l-50.474667-92.544 117.76-67.306667 50.496 92.544-37.866666 25.237333-29.44-54.698666-37.866667 21.034666L405.333333 526.08zM590.4 399.872h-105.173333v-46.272h63.104v-42.048h-63.082667v-46.293333h105.173333zM615.637333 601.792l-113.557333-67.306667 50.474667-92.544 42.048 21.034667-29.44 54.677333 33.664 21.034667 33.642666-50.474667 37.866667 21.034667zM316.992 395.669333c-33.664 0-63.104-29.44-63.104-63.082666 0-33.664 29.44-63.104 63.104-63.104 33.642667 0 63.082667 29.44 63.082667 63.104 0 33.642667-29.44 63.082667-63.082667 63.082666z m0-88.32c-12.629333 0-25.237333 12.608-25.237333 25.237334 0 12.608 12.608 25.237333 25.237333 25.237333 12.608 0 25.237333-12.629333 25.237333-25.237333 0-12.629333-8.426667-25.237333-25.237333-25.237334zM695.573333 395.669333c-33.664 0-63.104-29.44-63.104-63.082666 0-33.664 29.44-63.104 63.104-63.104 33.642667 0 63.082667 29.44 63.082667 63.104 0 33.642667-29.44 63.082667-63.082667 63.082666z m0-88.32c-12.629333 0-25.237333 12.608-25.237333 25.237334 0 12.608 12.608 25.237333 25.237333 25.237333 12.608 0 25.237333-12.629333 25.237334-25.237333 0-12.629333-12.629333-25.237333-25.237334-25.237334zM510.485333 715.370667c-33.664 0-63.104-29.44-63.104-63.104 0-33.642667 29.44-63.104 63.104-63.104 33.642667 0 63.104 29.44 63.104 63.104 0 33.642667-29.44 63.104-63.104 63.104z m0-88.341334c-12.629333 0-25.237333 12.608-25.237333 25.237334 0 12.608 12.608 25.237333 25.237333 25.237333 12.608 0 25.237333-12.629333 25.237334-25.237333 0-16.832-8.405333-25.237333-25.237334-25.237334z" fill="#ffffff" p-id="2211"></path></svg>